<svg id="Layer_1" data-name="Layer 1" xmlns="http://www.w3.org/2000/svg" xmlns:xlink="http://www.w3.org/1999/xlink" viewBox="0 0 1396.6 538.14"><defs><style>.cls-1{fill:#f1f1f1;}.cls-2{fill:#e5e6e6;}.cls-3{fill:#48bfee;}.cls-4{fill:#0e70b1;}.cls-5{fill:#1a9dd8;}.cls-6,.cls-8{fill:#076fb0;}.cls-6{stroke:#fff;stroke-miterlimit:10;stroke-width:3px;}.cls-7{fill:#1c9cd8;}.cls-9{fill:url(#linear-gradient);}.cls-10{fill:url(#linear-gradient-2);}.cls-11{fill:url(#linear-gradient-3);}.cls-12{fill:#fff;}</style><linearGradient id="linear-gradient" x1="267.32" y1="337.14" x2="267.32" y2="214.12" gradientUnits="userSpaceOnUse"><stop offset="0" stop-color="#1c9cd8"/><stop offset="1" stop-color="#077ebb"/></linearGradient><linearGradient id="linear-gradient-2" x1="267.33" y1="243.34" x2="267.33" y2="93.65" gradientUnits="userSpaceOnUse"><stop offset="0" stop-color="#1c9cd8"/><stop offset="1" stop-color="#076fb0"/></linearGradient><linearGradient id="linear-gradient-3" x1="267.33" y1="243.34" x2="267.33" y2="45.05" xlink:href="#linear-gradient-2"/></defs><title>HORN</title><path class="cls-1" d="M404.15,206.18a109.94,109.94,0,0,1,.51,11.15,26.61,26.61,0,0,1-.09,2.75C346.72,255.89,286,296.73,223.87,343.35h0a134.59,134.59,0,0,1-81.43-83.73c79-27.91,164.78-55,256.88-79.76A125.74,125.74,0,0,1,404.15,206.18Z" transform="translate(-3.4 8)"/><path class="cls-2" d="M499.52,164.32q-30.82,12.39-63.23,26.88c-10.58,4.81-21.34,9.8-32.15,15a125.74,125.74,0,0,0-4.87-26.32c10.76-2.89,21.67-5.79,32.62-8.63q65.5-16.94,135-32.16Q534.48,150.41,499.52,164.32Z" transform="translate(-3.4 8)"/><path class="cls-2" d="M831.29,91.83q-90.35,12.6-185.75,31-39.94,7.77-78.62,16.24-32.43,11.34-67.39,25.25-30.33,16.87-62.1,35.84c.23,1.45.33,2.89.42,4.39q16.08-5.32,32.95-10.5A2156.46,2156.46,0,0,1,888.9,108.82c62.95-6.44,123.22-9.8,180.41-10.83A2158.14,2158.14,0,0,1,1400,117.41v-59A3555.34,3555.34,0,0,0,831.29,91.83Z" transform="translate(-3.4 8)"/><path class="cls-3" d="M436.3,191.2c.47,2.94.89,5.93,1.12,9-10.81,6.44-21.76,13.12-32.85,19.93a26.61,26.61,0,0,0,.09-2.75,109.94,109.94,0,0,0-.51-11.15C415,201,425.72,196,436.3,191.2Z" transform="translate(-3.4 8)"/><path class="cls-3" d="M436.3,191.2q32.36-14.56,63.23-26.88-30.33,16.87-62.1,35.84C437.19,197.13,436.77,194.14,436.3,191.2Z" transform="translate(-3.4 8)"/><path class="cls-2" d="M136.83,368.74q14-10.57,27.85-20.63a168.73,168.73,0,0,0,28.64,18.53q-14.6,11.27-28.69,22.59C104.63,437.12,51,484.63,3.4,530.14V482.9A1487,1487,0,0,1,124.8,378C128.82,374.86,132.85,371.78,136.83,368.74Z" transform="translate(-3.4 8)"/><path class="cls-4" d="M223.83,343.35c-1.26,1-2.57,1.91-3.84,2.89-9,6.81-17.92,13.58-26.68,20.4a168.73,168.73,0,0,1-28.64-18.53c9.64-7,19.28-13.77,28.92-20.4A133.47,133.47,0,0,0,223.83,343.35Z" transform="translate(-3.4 8)"/><path class="cls-4" d="M164.67,348.11q-13.9,10.08-27.85,20.63a201,201,0,0,1-57.89-86.11q15.65-5.88,31.73-11.67,15.65-5.74,31.73-11.34a134.34,134.34,0,0,0,51.2,68.1C184,334.34,174.31,341.11,164.67,348.11Z" transform="translate(-3.4 8)"/><path class="cls-4" d="M136.83,368.74c-4,3-8,6.11-12,9.24A1487,1487,0,0,0,3.4,482.9V311.85Q40,297.22,78.93,282.63A201,201,0,0,0,136.83,368.74Z" transform="translate(-3.4 8)"/><path class="cls-4" d="M270.11,49.55A167.16,167.16,0,0,1,316.49,56q-72,11-141.85,23.15A167.39,167.39,0,0,1,270.11,49.55Z" transform="translate(-3.4 8)"/><path class="cls-4" d="M431.9,171.22c-11,2.85-21.86,5.74-32.62,8.63A134.42,134.42,0,0,0,270.11,83.15c-74.32,0-134.55,60.07-134.55,134.18a133,133,0,0,0,6.83,42.29q-16.08,5.6-31.73,11.34a167.59,167.59,0,0,1,64-191.78Q244.49,67.07,316.49,56A168.2,168.2,0,0,1,431.9,171.22Z" transform="translate(-3.4 8)"/><path class="cls-3" d="M566.92,139.07q-69.57,15.12-135,32.16A168.2,168.2,0,0,0,316.49,56C512.35,26.12,699.45,5.49,876.4-8H1400V58.37A3555.34,3555.34,0,0,0,831.29,91.83q-90.35,12.6-185.75,31Q605.6,130.59,566.92,139.07Z" transform="translate(-3.4 8)"/><path class="cls-5" d="M3.4-8h873c-177,13.49-364.06,34.12-559.91,64A168.73,168.73,0,0,0,174.64,79.18q-87.33,15-171.24,31.6Z" transform="translate(-3.4 8)"/><path class="cls-3" d="M78.93,282.63Q40,297.19,3.4,311.85V110.78q83.89-16.52,171.24-31.6a167.59,167.59,0,0,0-64,191.78Q94.59,276.77,78.93,282.63Z" transform="translate(-3.4 8)"/><polygon class="cls-6" points="516.45 255.58 514.43 255.58 514.43 288.99 532.51 288.99 532.51 287.22 516.45 287.22 516.45 255.58"/><path class="cls-6" d="M568.73,247.18c-9.43,0-17.1,6.93-17.1,17.1s7.66,17.1,17.1,17.1,17.1-6.93,17.1-17.1S578.17,247.18,568.73,247.18Zm0,32.38c-8.6,0-15-6.53-15-15.28s6.44-15.28,15-15.28,15,6.53,15,15.28S577.33,279.56,568.73,279.56Z" transform="translate(-3.4 8)"/><path class="cls-6" d="M621.65,268.11h13.56c-.79,6-5.4,11.45-14.15,11.45S606,273,606,264.28,612.41,249,621,249c5.26,0,9.48,2,12,5.94l1.52-1.13c-2.8-4.47-7.91-6.63-13.56-6.63a17.1,17.1,0,1,0,0,34.19c9.58,0,15.92-6,16.36-15.08H621.65Z" transform="translate(-3.4 8)"/><rect class="cls-6" x="653.73" y="255.58" width="2.01" height="33.41"/><path class="cls-6" d="M692.4,262.9l-3.1-1.42c-4.13-1.92-5.8-3.54-5.8-6.88s2.31-5.65,6.24-5.65a7.62,7.62,0,0,1,7,4.08l1.57-1a9.5,9.5,0,0,0-8.55-4.81c-4.52,0-8.2,2.85-8.2,7.47,0,4.23,2.31,6.44,7,8.6l3.1,1.42c4.67,2.16,6.83,4.27,6.83,8.16,0,4.23-3.59,6.78-8,6.78-5.36,0-7.86-2.8-9.43-5.75l-1.72.84c1.62,3.34,4.86,6.68,11.2,6.68,5.75,0,9.87-3.34,9.87-8.55C700.41,268.21,697.81,265.36,692.4,262.9Z" transform="translate(-3.4 8)"/><polygon class="cls-6" points="714.01 257.35 724.62 257.35 724.62 288.99 726.64 288.99 726.64 257.35 737.25 257.35 737.25 255.58 714.01 255.58 714.01 257.35"/><rect class="cls-6" x="757.25" y="255.58" width="2.01" height="33.41"/><path class="cls-6" d="M800.94,279.56c-8.6,0-15-6.53-15-15.28s6.44-15.28,15-15.28c5.31,0,9.29,2.16,11.74,5.65l1.52-1.13c-2.8-4.08-7.42-6.34-13.27-6.34-9.43,0-17.1,6.93-17.1,17.1s7.66,17.1,17.1,17.1c5.8,0,10.71-2.41,13.66-6.68l-1.52-1.08A14.36,14.36,0,0,1,800.94,279.56Z" transform="translate(-3.4 8)"/><path class="cls-6" d="M845.7,262.9l-3.1-1.42c-4.13-1.92-5.8-3.54-5.8-6.88S839.11,249,843,249a7.62,7.62,0,0,1,7,4.08l1.57-1a9.5,9.5,0,0,0-8.55-4.81c-4.52,0-8.21,2.85-8.21,7.47,0,4.23,2.31,6.44,7,8.6l3.1,1.42c4.67,2.16,6.83,4.27,6.83,8.16,0,4.23-3.59,6.78-8,6.78-5.36,0-7.86-2.8-9.43-5.75l-1.72.84c1.62,3.34,4.86,6.68,11.2,6.68,5.75,0,9.87-3.34,9.87-8.55C853.7,268.21,851.1,265.36,845.7,262.9Z" transform="translate(-3.4 8)"/><path class="cls-6" d="M512.76,171.49H383.23c-1.07-2.78-2.24-5.51-3.5-8.19H563.34a5.13,5.13,0,1,0,0-10.26H374.22A121.71,121.71,0,0,0,148,214.12c0,.43,0,.85,0,1.28a121.7,121.7,0,0,0,212,81.68h34.85a5.13,5.13,0,0,0,0-10.26H368.24q3.15-4.35,5.92-9h84.14a5.13,5.13,0,0,0,0-10.26H379.68c1.27-2.67,2.43-5.41,3.51-8.19H495.61a5.13,5.13,0,1,0,0-10.26H386.67l0-.09H303.06L257,197.8l26.81-16h228.9a5.13,5.13,0,1,0,0-10.26Z" transform="translate(-3.4 8)"/><polygon class="cls-6" points="337.07 245.86 337.07 196.31 323.43 196.31 323.43 218.97 305.73 218.97 305.73 196.31 292.09 196.31 292.09 245.86 305.73 245.86 305.73 230.12 323.43 230.12 323.43 245.86 337.07 245.86"/><path class="cls-6" d="M346.84,213.09c0,14.94,12.67,25.43,27.36,25.43s27.36-10.49,27.36-25.43-12.67-25.36-27.36-25.36S346.84,198.15,346.84,213.09Zm40.78,0c0,7.8-4.87,13.92-13.42,13.92s-13.42-6.12-13.42-13.92,4.87-13.84,13.42-13.84S387.63,205.29,387.63,213.09Z" transform="translate(-3.4 8)"/><path class="cls-6" d="M448.73,207.77c0-11-7.72-19.46-21.44-19.46H407.94v49.55h13.64V226.49h5.1l7.12,11.37h14.77l-9.07-14.06C445.5,220.59,448.73,214.91,448.73,207.77Zm-22.12,8.16h-5v-16.4h5c6.15,0,8.4,3.42,8.4,8.23S432.76,215.93,426.61,215.93Z" transform="translate(-3.4 8)"/><path class="cls-6" d="M488.16,213.16l-32-25.65c-.82-.66-1-.29-1,.15v50.21h12.82v-24.7l32,25.58c.82.66,1,.44,1-.15V188.31H488.16Z" transform="translate(-3.4 8)"/><path class="cls-6" d="M560.21,237.86H574.3l-24.74-50.42c-.22-.51-.67-.51-.9,0l-24.82,50.42h13.34l1.87-4.23h19.19Zm-16.79-14.14,5.1-11.51,5.25,11.51Z" transform="translate(-3.4 8)"/><path class="cls-6" d="M598.37,188.31l-10.12,23.1-10.42-23.1H563.28l24,50.06a.47.47,0,0,0,.9,0l24.07-50.06Z" transform="translate(-3.4 8)"/><rect class="cls-6" x="613.86" y="196.31" width="13.64" height="49.55"/><path class="cls-6" d="M661.64,187.44c-.22-.51-.67-.51-.9,0l-24.82,50.42h13.34l1.87-4.23h19.19l1.95,4.23h14.09Zm-6.15,36.29,5.1-11.51,5.25,11.51Z" transform="translate(-3.4 8)"/><polygon class="cls-6" points="718.14 196.31 677.51 196.31 677.51 207.46 691 207.46 691 245.86 704.65 245.86 704.65 207.46 718.14 207.46 718.14 196.31"/><rect class="cls-6" x="724.59" y="196.31" width="13.64" height="49.55"/><path class="cls-6" d="M803,213.09c0-14.94-12.67-25.36-27.36-25.36s-27.36,10.42-27.36,25.36,12.67,25.43,27.36,25.43S803,228,803,213.09ZM775.67,227c-8.55,0-13.42-6.12-13.42-13.92s4.87-13.84,13.42-13.84,13.42,6,13.42,13.84S784.22,227,775.67,227Z" transform="translate(-3.4 8)"/><path class="cls-6" d="M842.47,188.31v24.85l-32-25.65c-.82-.66-1-.29-1,.15v50.21h12.82v-24.7l32,25.58c.82.66,1,.44,1-.15V188.31Z" transform="translate(-3.4 8)"/><path class="cls-7" d="M517.83,247.58h2v31.64h16.07V281H517.83Z" transform="translate(-3.4 8)"/><path class="cls-7" d="M551.64,264.28c0-10.17,7.66-17.1,17.1-17.1s17.1,6.93,17.1,17.1-7.66,17.1-17.1,17.1S551.64,274.45,551.64,264.28Zm32.13,0c0-8.75-6.44-15.28-15-15.28s-15,6.53-15,15.28,6.44,15.28,15,15.28S583.77,273,583.77,264.28Z" transform="translate(-3.4 8)"/><path class="cls-7" d="M603.92,264.28a16.71,16.71,0,0,1,17.1-17.1c5.65,0,10.76,2.16,13.56,6.63L633,254.95c-2.55-4-6.78-5.94-12-5.94-8.6,0-15,6.53-15,15.28s6.49,15.28,15.08,15.28,13.36-5.4,14.15-11.45H621.65v-1.82h15.77c-.44,9-6.78,15.08-16.36,15.08A16.75,16.75,0,0,1,603.92,264.28Z" transform="translate(-3.4 8)"/><path class="cls-7" d="M657.13,247.58h2V281h-2Z" transform="translate(-3.4 8)"/><path class="cls-7" d="M679.33,274.7l1.72-.84c1.57,2.95,4.08,5.75,9.43,5.75,4.37,0,8-2.55,8-6.78,0-3.88-2.16-6-6.83-8.16l-3.1-1.42c-4.67-2.16-7-4.37-7-8.6,0-4.62,3.69-7.47,8.2-7.47A9.5,9.5,0,0,1,698.3,252l-1.57,1a7.62,7.62,0,0,0-7-4.08c-3.93,0-6.24,2.26-6.24,5.65s1.67,5,5.8,6.88l3.1,1.42c5.4,2.46,8,5.31,8,9.92,0,5.21-4.13,8.55-9.87,8.55C684.2,281.38,681,278,679.33,274.7Z" transform="translate(-3.4 8)"/><path class="cls-7" d="M728,249.35H717.41v-1.77h23.24v1.77H730V281h-2Z" transform="translate(-3.4 8)"/><path class="cls-7" d="M760.65,247.58h2V281h-2Z" transform="translate(-3.4 8)"/><path class="cls-7" d="M783.84,264.28c0-10.17,7.66-17.1,17.1-17.1,5.85,0,10.46,2.26,13.27,6.34l-1.52,1.13c-2.46-3.49-6.44-5.65-11.74-5.65-8.6,0-15,6.53-15,15.28s6.44,15.28,15,15.28a14.36,14.36,0,0,0,12.14-5.94l1.52,1.08c-2.95,4.27-7.86,6.68-13.66,6.68C791.5,281.38,783.84,274.45,783.84,264.28Z" transform="translate(-3.4 8)"/><path class="cls-7" d="M832.63,274.7l1.72-.84c1.57,2.95,4.08,5.75,9.43,5.75,4.37,0,8-2.55,8-6.78,0-3.88-2.16-6-6.83-8.16l-3.1-1.42c-4.67-2.16-7-4.37-7-8.6,0-4.62,3.69-7.47,8.2-7.47a9.5,9.5,0,0,1,8.55,4.81L850,253a7.62,7.62,0,0,0-7-4.08c-3.93,0-6.24,2.26-6.24,5.65s1.67,5,5.8,6.88l3.1,1.42c5.4,2.46,8,5.31,8,9.92,0,5.21-4.13,8.55-9.87,8.55C837.49,281.38,834.25,278,832.63,274.7Z" transform="translate(-3.4 8)"/><path class="cls-7" d="M386.7,181.75H512.76a5.13,5.13,0,0,0,5.13-5.13h0a5.13,5.13,0,0,0-5.13-5.13H370.33" transform="translate(-3.4 8)"/><path class="cls-8" d="M353.65,163.31H563.34a5.13,5.13,0,0,0,5.13-5.13h0a5.13,5.13,0,0,0-5.13-5.13H337.28" transform="translate(-3.4 8)"/><path class="cls-7" d="M284.35,277.84h174a5.13,5.13,0,0,0,5.13-5.13h0a5.13,5.13,0,0,0-5.13-5.13H268" transform="translate(-3.4 8)"/><path class="cls-8" d="M220.8,297.07h174a5.13,5.13,0,0,0,5.13-5.13h0a5.13,5.13,0,0,0-5.13-5.13H204.44" transform="translate(-3.4 8)"/><path class="cls-8" d="M272.05,259.4H495.61a5.13,5.13,0,0,0,5.13-5.13h0a5.13,5.13,0,0,0-5.13-5.13H255.68" transform="translate(-3.4 8)"/><path class="cls-9" d="M148,214.12c0,.43,0,.85,0,1.28A121.74,121.74,0,0,0,386.7,249H297.2l-4.55-5.75q-3,0-6.06,0C232.41,243.34,183.38,232.17,148,214.12Z" transform="translate(-3.4 8)"/><path class="cls-10" d="M386.7,181.75A121.74,121.74,0,0,0,148,214.12c35.41,18,84.45,29.22,138.63,29.22q3,0,6.06,0L244,181.75Z" transform="translate(-3.4 8)"/><path class="cls-11" d="M386.7,181.75A121.74,121.74,0,0,0,148,214.12c35.41,18,84.45,29.22,138.63,29.22q3,0,6.06,0L244,181.75Z" transform="translate(-3.4 8)"/><path class="cls-12" d="M332.08,283.23l25.13-16-5.31-1.62L322.85,271c-2-2.29-4.29-4.76-7-7.74L257,197.8l78.07-46.74a1.22,1.22,0,0,0-.29-2.21l-8.5-2.46a8.56,8.56,0,0,0-4.83,0l-56.57,16.84-15.61-15.61a.61.61,0,0,0-.87,0L242.1,154a.61.61,0,0,0,0,.87l11.69,11.69-19.56,5.82-15.18-16.91a40.46,40.46,0,0,0-15.49-10.59l-16-6.14a6.28,6.28,0,0,0-8.11,8.11l6.14,16a40.46,40.46,0,0,0,10.59,15.49L213,193.58l-5.16,17.34L197,200a.61.61,0,0,0-.87,0l-6.37,6.37a.61.61,0,0,0,0,.87l14.83,14.83-17.5,58.79a8.56,8.56,0,0,0,0,4.83l2.46,8.5a1.22,1.22,0,0,0,2.21.29l46.74-78.07,65.49,58.8c3,2.71,5.45,5,7.74,7l-5.4,29.06,1.62,5.31,16-25.13c2.38,1.49,5.07,3,8.29,4.7l9.69,5.08-5.08-9.69C335.09,288.3,333.57,285.61,332.08,283.23Z" transform="translate(-3.4 8)"/><path class="cls-8" d="M326.83,188.31h13.64v49.55H326.83V222.12H309.13v15.74H295.49V188.31h13.64V211h17.69Z" transform="translate(-3.4 8)"/><path class="cls-8" d="M346.84,213.09c0-14.94,12.67-25.36,27.36-25.36s27.36,10.42,27.36,25.36-12.67,25.43-27.36,25.43S346.84,228,346.84,213.09Zm40.78,0c0-7.8-4.87-13.84-13.42-13.84s-13.42,6-13.42,13.84S365.66,227,374.21,227,387.63,220.88,387.63,213.09Z" transform="translate(-3.4 8)"/><path class="cls-8" d="M448.58,237.86H433.81l-7.12-11.37h-5.1v11.37H407.94V188.31h19.34c13.72,0,21.44,8.45,21.44,19.46,0,7.14-3.22,12.82-9.22,16Zm-22-21.93c6.15,0,8.4-3.35,8.4-8.16s-2.25-8.23-8.4-8.23h-5v16.4Z" transform="translate(-3.4 8)"/><path class="cls-8" d="M467.92,213.16v24.7H455.1V187.65c0-.44.22-.8,1-.15l32,25.65V188.31H501v50.28c0,.58-.22.8-1,.15Z" transform="translate(-3.4 8)"/><path class="cls-8" d="M537.19,237.86H523.85l24.82-50.42c.22-.51.67-.51.9,0l24.74,50.42H560.21l-1.95-4.23H539.06Zm11.32-25.65-5.1,11.51h10.35Z" transform="translate(-3.4 8)"/><path class="cls-8" d="M588.17,238.37a.47.47,0,0,1-.9,0l-24-50.06h14.54l10.42,23.1,10.12-23.1h13.87Z" transform="translate(-3.4 8)"/><path class="cls-8" d="M617.26,188.31H630.9v49.55H617.26Z" transform="translate(-3.4 8)"/><path class="cls-8" d="M649.27,237.86H635.93l24.82-50.42c.22-.51.67-.51.9,0l24.74,50.42H672.29l-1.95-4.23H651.14Zm11.32-25.65-5.1,11.51h10.35Z" transform="translate(-3.4 8)"/><path class="cls-8" d="M694.4,199.46H680.91V188.31h40.63v11.15H708v38.4H694.4Z" transform="translate(-3.4 8)"/><path class="cls-8" d="M728,188.31h13.64v49.55H728Z" transform="translate(-3.4 8)"/><path class="cls-8" d="M748.31,213.09c0-14.94,12.67-25.36,27.36-25.36S803,198.15,803,213.09s-12.67,25.43-27.36,25.43S748.31,228,748.31,213.09Zm40.78,0c0-7.8-4.87-13.84-13.42-13.84s-13.42,6-13.42,13.84S767.12,227,775.67,227,789.09,220.88,789.09,213.09Z" transform="translate(-3.4 8)"/><path class="cls-8" d="M822.23,213.16v24.7H809.41V187.65c0-.44.22-.8,1-.15l32,25.65V188.31h12.82v50.28c0,.58-.22.8-1,.15Z" transform="translate(-3.4 8)"/></svg>