<svg id="Layer_1" data-name="Layer 1" xmlns="http://www.w3.org/2000/svg" xmlns:xlink="http://www.w3.org/1999/xlink" viewBox="0 0 4081.6 571.14"><defs><style>.cls-1{fill:#f1f1f1;}.cls-2{fill:#e5e6e6;}.cls-3{fill:#48bfee;}.cls-4{fill:#0e70b1;}.cls-5{fill:#1a9dd8;}.cls-6,.cls-8{fill:#076fb0;}.cls-6{stroke:#fff;stroke-miterlimit:10;stroke-width:3px;}.cls-7{fill:#1c9cd8;}.cls-9{fill:url(#linear-gradient);}.cls-10{fill:url(#linear-gradient-2);}.cls-11{fill:url(#linear-gradient-3);}.cls-12{fill:#fff;}</style><linearGradient id="linear-gradient" x1="275.32" y1="318.14" x2="275.32" y2="195.12" gradientUnits="userSpaceOnUse"><stop offset="0" stop-color="#1c9cd8"/><stop offset="1" stop-color="#077ebb"/></linearGradient><linearGradient id="linear-gradient-2" x1="275.33" y1="224.34" x2="275.33" y2="74.65" gradientUnits="userSpaceOnUse"><stop offset="0" stop-color="#1c9cd8"/><stop offset="1" stop-color="#076fb0"/></linearGradient><linearGradient id="linear-gradient-3" x1="275.33" y1="224.34" x2="275.33" y2="26.05" xlink:href="#linear-gradient-2"/></defs><title>logo 2</title><path class="cls-1" d="M412.15,187.18a109.94,109.94,0,0,1,.51,11.15,26.61,26.61,0,0,1-.09,2.75C354.72,236.89,294,277.73,231.87,324.35h0a134.59,134.59,0,0,1-81.43-83.73c79-27.91,164.78-55,256.88-79.76A125.74,125.74,0,0,1,412.15,187.18Z" transform="translate(-11.4 60)"/><path class="cls-2" d="M507.52,145.32q-30.82,12.39-63.23,26.88c-10.58,4.81-21.34,9.8-32.15,15a125.74,125.74,0,0,0-4.87-26.32c10.76-2.89,21.67-5.79,32.62-8.63q65.5-16.94,135-32.16Q542.48,131.41,507.52,145.32Z" transform="translate(-11.4 60)"/><path class="cls-2" d="M4013,39.73,1393,40.1A3555.34,3555.34,0,0,0,824.29,73.56q-90.35,12.6-185.75,31-39.94,7.77-78.62,16.24Q527.48,132.14,492.52,146q-30.33,16.87-62.1,35.84c.23,1.45.33,2.89.42,4.39,10.72-3.55-834.7,76.66,85.16-25.55,63-7,257.06-44.44,427-50.73,108-4,139-1.73,267-6,126.64-4.22,2868,90.32,2868,125.73" transform="translate(-11.4 60)"/><path class="cls-3" d="M444.3,172.2c.47,2.94.89,5.93,1.12,9-10.81,6.44-21.76,13.12-32.85,19.93a26.61,26.61,0,0,0,.09-2.75,109.94,109.94,0,0,0-.51-11.15C423,182,433.72,177,444.3,172.2Z" transform="translate(-11.4 60)"/><path class="cls-3" d="M444.3,172.2q32.36-14.56,63.23-26.88-30.33,16.87-62.1,35.84C445.19,178.13,444.77,175.14,444.3,172.2Z" transform="translate(-11.4 60)"/><path class="cls-2" d="M144.83,349.74q14-10.57,27.85-20.63a168.73,168.73,0,0,0,28.64,18.53q-14.6,11.27-28.69,22.59C112.63,418.12,59,465.63,11.4,511.14V463.9A1487,1487,0,0,1,132.8,359C136.82,355.86,140.85,352.78,144.83,349.74Z" transform="translate(-11.4 60)"/><path class="cls-4" d="M231.83,324.35c-1.26,1-2.57,1.91-3.84,2.89-9,6.81-17.92,13.58-26.68,20.4a168.73,168.73,0,0,1-28.64-18.53c9.64-7,19.28-13.77,28.92-20.4A133.47,133.47,0,0,0,231.83,324.35Z" transform="translate(-11.4 60)"/><path class="cls-4" d="M172.67,329.11q-13.9,10.08-27.85,20.63a201,201,0,0,1-57.89-86.11q15.65-5.88,31.73-11.67,15.65-5.74,31.73-11.34a134.34,134.34,0,0,0,51.2,68.1C192,315.34,182.31,322.11,172.67,329.11Z" transform="translate(-11.4 60)"/><path class="cls-4" d="M144.83,349.74c-4,3-8,6.11-12,9.24A1487,1487,0,0,0,11.4,463.9V292.85Q48,278.22,86.93,263.63A201,201,0,0,0,144.83,349.74Z" transform="translate(-11.4 60)"/><path class="cls-4" d="M278.11,30.55A167.16,167.16,0,0,1,324.49,37q-72,11-141.85,23.15A167.39,167.39,0,0,1,278.11,30.55Z" transform="translate(-11.4 60)"/><path class="cls-4" d="M439.9,152.22c-11,2.85-21.86,5.74-32.62,8.63A134.42,134.42,0,0,0,278.11,64.15c-74.32,0-134.55,60.07-134.55,134.18a133,133,0,0,0,6.83,42.29q-16.08,5.6-31.73,11.34a167.59,167.59,0,0,1,64-191.78Q252.49,48.07,324.49,37A168.2,168.2,0,0,1,439.9,152.22Z" transform="translate(-11.4 60)"/><path class="cls-3" d="M4028,39c-161.41-3.45-2973.9,3.78-3188.71,33.83q-90.35,12.6-185.75,31-39.94,7.77-78.62,16.24-69.57,15.12-135,32.16A168.2,168.2,0,0,0,324.49,37c195.86-29.92,383-50.55,559.91-64L4093-60" transform="translate(-11.4 60)"/><path class="cls-5" d="M11.4-27h873c-177,13.49-364.06,34.12-559.91,64A168.73,168.73,0,0,0,182.64,60.18q-87.33,15-171.24,31.6Z" transform="translate(-11.4 60)"/><path class="cls-3" d="M86.93,263.63Q48,278.19,11.4,292.85V91.78q83.89-16.52,171.24-31.6a167.59,167.59,0,0,0-64,191.78Q102.59,257.77,86.93,263.63Z" transform="translate(-11.4 60)"/><polygon class="cls-6" points="516.45 288.58 514.43 288.58 514.43 321.99 532.51 321.99 532.51 320.22 516.45 320.22 516.45 288.58"/><path class="cls-6" d="M576.73,228.18c-9.43,0-17.1,6.93-17.1,17.1s7.66,17.1,17.1,17.1,17.1-6.93,17.1-17.1S586.17,228.18,576.73,228.18Zm0,32.38c-8.6,0-15-6.53-15-15.28s6.44-15.28,15-15.28,15,6.53,15,15.28S585.33,260.56,576.73,260.56Z" transform="translate(-11.4 60)"/><path class="cls-6" d="M629.65,249.11h13.56c-.79,6-5.4,11.45-14.15,11.45S614,254,614,245.28,620.41,230,629,230c5.26,0,9.48,2,12,5.94l1.52-1.13c-2.8-4.47-7.91-6.63-13.56-6.63a17.1,17.1,0,1,0,0,34.19c9.58,0,15.92-6,16.36-15.08H629.65Z" transform="translate(-11.4 60)"/><rect class="cls-6" x="653.73" y="288.58" width="2.01" height="33.41"/><path class="cls-6" d="M700.4,243.9l-3.1-1.42c-4.13-1.92-5.8-3.54-5.8-6.88s2.31-5.65,6.24-5.65a7.62,7.62,0,0,1,7,4.08l1.57-1a9.5,9.5,0,0,0-8.55-4.81c-4.52,0-8.2,2.85-8.2,7.47,0,4.23,2.31,6.44,7,8.6l3.1,1.42c4.67,2.16,6.83,4.27,6.83,8.16,0,4.23-3.59,6.78-8,6.78-5.36,0-7.86-2.8-9.43-5.75l-1.72.84c1.62,3.34,4.86,6.68,11.2,6.68,5.75,0,9.87-3.34,9.87-8.55C708.41,249.21,705.81,246.36,700.4,243.9Z" transform="translate(-11.4 60)"/><polygon class="cls-6" points="714.01 290.35 724.62 290.35 724.62 321.99 726.64 321.99 726.64 290.35 737.25 290.35 737.25 288.58 714.01 288.58 714.01 290.35"/><rect class="cls-6" x="757.25" y="288.58" width="2.01" height="33.41"/><path class="cls-6" d="M808.94,260.56c-8.6,0-15-6.53-15-15.28s6.44-15.28,15-15.28c5.31,0,9.29,2.16,11.74,5.65l1.52-1.13c-2.8-4.08-7.42-6.34-13.27-6.34-9.43,0-17.1,6.93-17.1,17.1s7.66,17.1,17.1,17.1c5.8,0,10.71-2.41,13.66-6.68l-1.52-1.08A14.36,14.36,0,0,1,808.94,260.56Z" transform="translate(-11.4 60)"/><path class="cls-6" d="M853.7,243.9l-3.1-1.42c-4.13-1.92-5.8-3.54-5.8-6.88S847.11,230,851,230a7.62,7.62,0,0,1,7,4.08l1.57-1a9.5,9.5,0,0,0-8.55-4.81c-4.52,0-8.21,2.85-8.21,7.47,0,4.23,2.31,6.44,7,8.6l3.1,1.42c4.67,2.16,6.83,4.27,6.83,8.16,0,4.23-3.59,6.78-8,6.78-5.36,0-7.86-2.8-9.43-5.75l-1.72.84c1.62,3.34,4.86,6.68,11.2,6.68,5.75,0,9.87-3.34,9.87-8.55C861.7,249.21,859.1,246.36,853.7,243.9Z" transform="translate(-11.4 60)"/><path class="cls-6" d="M520.76,152.49H391.23c-1.07-2.78-2.24-5.51-3.5-8.19H571.34a5.13,5.13,0,1,0,0-10.26H382.22A121.71,121.71,0,0,0,156,195.12c0,.43,0,.85,0,1.28a121.7,121.7,0,0,0,212,81.68h34.85a5.13,5.13,0,0,0,0-10.26H376.24q3.15-4.35,5.92-9h84.14a5.13,5.13,0,0,0,0-10.26H387.68c1.27-2.67,2.43-5.41,3.51-8.19H503.61a5.13,5.13,0,1,0,0-10.26H394.67l0-.09H311.06L265,178.8l26.81-16h228.9a5.13,5.13,0,1,0,0-10.26Z" transform="translate(-11.4 60)"/><polygon class="cls-6" points="337.07 278.86 337.07 229.31 323.43 229.31 323.43 251.97 305.73 251.97 305.73 229.31 292.09 229.31 292.09 278.86 305.73 278.86 305.73 263.12 323.43 263.12 323.43 278.86 337.07 278.86"/><path class="cls-6" d="M354.84,194.09c0,14.94,12.67,25.43,27.36,25.43s27.36-10.49,27.36-25.43-12.67-25.36-27.36-25.36S354.84,179.15,354.84,194.09Zm40.78,0c0,7.8-4.87,13.92-13.42,13.92s-13.42-6.12-13.42-13.92,4.87-13.84,13.42-13.84S395.63,186.29,395.63,194.09Z" transform="translate(-11.4 60)"/><path class="cls-6" d="M456.73,188.77c0-11-7.72-19.46-21.44-19.46H415.94v49.55h13.64V207.49h5.1l7.12,11.37h14.77l-9.07-14.06C453.5,201.59,456.73,195.91,456.73,188.77Zm-22.12,8.16h-5v-16.4h5c6.15,0,8.4,3.42,8.4,8.23S440.76,196.93,434.61,196.93Z" transform="translate(-11.4 60)"/><path class="cls-6" d="M496.16,194.16l-32-25.65c-.82-.66-1-.29-1,.15v50.21h12.82v-24.7l32,25.58c.82.66,1,.44,1-.15V169.31H496.16Z" transform="translate(-11.4 60)"/><path class="cls-6" d="M568.21,218.86H582.3l-24.74-50.42c-.22-.51-.67-.51-.9,0l-24.82,50.42h13.34l1.87-4.23h19.19Zm-16.79-14.14,5.1-11.51,5.25,11.51Z" transform="translate(-11.4 60)"/><path class="cls-6" d="M606.37,169.31l-10.12,23.1-10.42-23.1H571.28l24,50.06a.47.47,0,0,0,.9,0l24.07-50.06Z" transform="translate(-11.4 60)"/><rect class="cls-6" x="613.86" y="229.31" width="13.64" height="49.55"/><path class="cls-6" d="M669.64,168.44c-.22-.51-.67-.51-.9,0l-24.82,50.42h13.34l1.87-4.23h19.19l1.95,4.23h14.09Zm-6.15,36.29,5.1-11.51,5.25,11.51Z" transform="translate(-11.4 60)"/><polygon class="cls-6" points="718.14 229.31 677.51 229.31 677.51 240.46 691 240.46 691 278.86 704.65 278.86 704.65 240.46 718.14 240.46 718.14 229.31"/><rect class="cls-6" x="724.59" y="229.31" width="13.64" height="49.55"/><path class="cls-6" d="M811,194.09c0-14.94-12.67-25.36-27.36-25.36s-27.36,10.42-27.36,25.36,12.67,25.43,27.36,25.43S811,209,811,194.09ZM783.67,208c-8.55,0-13.42-6.12-13.42-13.92s4.87-13.84,13.42-13.84,13.42,6,13.42,13.84S792.22,208,783.67,208Z" transform="translate(-11.4 60)"/><path class="cls-6" d="M850.47,169.31v24.85l-32-25.65c-.82-.66-1-.29-1,.15v50.21h12.82v-24.7l32,25.58c.82.66,1,.44,1-.15V169.31Z" transform="translate(-11.4 60)"/><path class="cls-7" d="M525.83,228.58h2v31.64h16.07V262H525.83Z" transform="translate(-11.4 60)"/><path class="cls-7" d="M559.64,245.28c0-10.17,7.66-17.1,17.1-17.1s17.1,6.93,17.1,17.1-7.66,17.1-17.1,17.1S559.64,255.45,559.64,245.28Zm32.13,0c0-8.75-6.44-15.28-15-15.28s-15,6.53-15,15.28,6.44,15.28,15,15.28S591.77,254,591.77,245.28Z" transform="translate(-11.4 60)"/><path class="cls-7" d="M611.92,245.28a16.71,16.71,0,0,1,17.1-17.1c5.65,0,10.76,2.16,13.56,6.63L641,235.95c-2.55-4-6.78-5.94-12-5.94-8.6,0-15,6.53-15,15.28s6.49,15.28,15.08,15.28,13.36-5.4,14.15-11.45H629.65v-1.82h15.77c-.44,9-6.78,15.08-16.36,15.08A16.75,16.75,0,0,1,611.92,245.28Z" transform="translate(-11.4 60)"/><path class="cls-7" d="M665.13,228.58h2V262h-2Z" transform="translate(-11.4 60)"/><path class="cls-7" d="M687.33,255.7l1.72-.84c1.57,2.95,4.08,5.75,9.43,5.75,4.37,0,8-2.55,8-6.78,0-3.88-2.16-6-6.83-8.16l-3.1-1.42c-4.67-2.16-7-4.37-7-8.6,0-4.62,3.69-7.47,8.2-7.47A9.5,9.5,0,0,1,706.3,233l-1.57,1a7.62,7.62,0,0,0-7-4.08c-3.93,0-6.24,2.26-6.24,5.65s1.67,5,5.8,6.88l3.1,1.42c5.4,2.46,8,5.31,8,9.92,0,5.21-4.13,8.55-9.87,8.55C692.2,262.38,689,259,687.33,255.7Z" transform="translate(-11.4 60)"/><path class="cls-7" d="M736,230.35H725.41v-1.77h23.24v1.77H738V262h-2Z" transform="translate(-11.4 60)"/><path class="cls-7" d="M768.65,228.58h2V262h-2Z" transform="translate(-11.4 60)"/><path class="cls-7" d="M791.84,245.28c0-10.17,7.66-17.1,17.1-17.1,5.85,0,10.46,2.26,13.27,6.34l-1.52,1.13c-2.46-3.49-6.44-5.65-11.74-5.65-8.6,0-15,6.53-15,15.28s6.44,15.28,15,15.28a14.36,14.36,0,0,0,12.14-5.94l1.52,1.08c-2.95,4.27-7.86,6.68-13.66,6.68C799.5,262.38,791.84,255.45,791.84,245.28Z" transform="translate(-11.4 60)"/><path class="cls-7" d="M840.63,255.7l1.72-.84c1.57,2.95,4.08,5.75,9.43,5.75,4.37,0,8-2.55,8-6.78,0-3.88-2.16-6-6.83-8.16l-3.1-1.42c-4.67-2.16-7-4.37-7-8.6,0-4.62,3.69-7.47,8.2-7.47a9.5,9.5,0,0,1,8.55,4.81L858,234a7.62,7.62,0,0,0-7-4.08c-3.93,0-6.24,2.26-6.24,5.65s1.67,5,5.8,6.88l3.1,1.42c5.4,2.46,8,5.31,8,9.92,0,5.21-4.13,8.55-9.87,8.55C845.49,262.38,842.25,259,840.63,255.7Z" transform="translate(-11.4 60)"/><path class="cls-7" d="M394.7,162.75H520.76a5.13,5.13,0,0,0,5.13-5.13h0a5.13,5.13,0,0,0-5.13-5.13H378.33" transform="translate(-11.4 60)"/><path class="cls-8" d="M361.65,144.31H571.34a5.13,5.13,0,0,0,5.13-5.13h0a5.13,5.13,0,0,0-5.13-5.13H345.28" transform="translate(-11.4 60)"/><path class="cls-7" d="M292.35,258.84h174a5.13,5.13,0,0,0,5.13-5.13h0a5.13,5.13,0,0,0-5.13-5.13H276" transform="translate(-11.4 60)"/><path class="cls-8" d="M228.8,278.07h174a5.13,5.13,0,0,0,5.13-5.13h0a5.13,5.13,0,0,0-5.13-5.13H212.44" transform="translate(-11.4 60)"/><path class="cls-8" d="M280.05,240.4H503.61a5.13,5.13,0,0,0,5.13-5.13h0a5.13,5.13,0,0,0-5.13-5.13H263.68" transform="translate(-11.4 60)"/><path class="cls-9" d="M156,195.12c0,.43,0,.85,0,1.28A121.74,121.74,0,0,0,394.7,230H305.2l-4.55-5.75q-3,0-6.06,0C240.41,224.34,191.38,213.17,156,195.12Z" transform="translate(-11.4 60)"/><path class="cls-10" d="M394.7,162.75A121.74,121.74,0,0,0,156,195.12c35.41,18,84.45,29.22,138.63,29.22q3,0,6.06,0L252,162.75Z" transform="translate(-11.4 60)"/><path class="cls-11" d="M394.7,162.75A121.74,121.74,0,0,0,156,195.12c35.41,18,84.45,29.22,138.63,29.22q3,0,6.06,0L252,162.75Z" transform="translate(-11.4 60)"/><path class="cls-12" d="M340.08,264.23l25.13-16-5.31-1.62L330.85,252c-2-2.29-4.29-4.76-7-7.74L265,178.8l78.07-46.74a1.22,1.22,0,0,0-.29-2.21l-8.5-2.46a8.56,8.56,0,0,0-4.83,0l-56.57,16.84-15.61-15.61a.61.61,0,0,0-.87,0L250.1,135a.61.61,0,0,0,0,.87l11.69,11.69-19.56,5.82-15.18-16.91a40.46,40.46,0,0,0-15.49-10.59l-16-6.14a6.28,6.28,0,0,0-8.11,8.11l6.14,16a40.46,40.46,0,0,0,10.59,15.49L221,174.58l-5.16,17.34L205,181a.61.61,0,0,0-.87,0l-6.37,6.37a.61.61,0,0,0,0,.87l14.83,14.83-17.5,58.79a8.56,8.56,0,0,0,0,4.83l2.46,8.5a1.22,1.22,0,0,0,2.21.29l46.74-78.07,65.49,58.8c3,2.71,5.45,5,7.74,7l-5.4,29.06,1.62,5.31,16-25.13c2.38,1.49,5.07,3,8.29,4.7l9.69,5.08-5.08-9.69C343.09,269.3,341.57,266.61,340.08,264.23Z" transform="translate(-11.4 60)"/><path class="cls-8" d="M334.83,169.31h13.64v49.55H334.83V203.12H317.13v15.74H303.49V169.31h13.64V192h17.69Z" transform="translate(-11.4 60)"/><path class="cls-8" d="M354.84,194.09c0-14.94,12.67-25.36,27.36-25.36s27.36,10.42,27.36,25.36-12.67,25.43-27.36,25.43S354.84,209,354.84,194.09Zm40.78,0c0-7.8-4.87-13.84-13.42-13.84s-13.42,6-13.42,13.84S373.66,208,382.21,208,395.63,201.88,395.63,194.09Z" transform="translate(-11.4 60)"/><path class="cls-8" d="M456.58,218.86H441.81l-7.12-11.37h-5.1v11.37H415.94V169.31h19.34c13.72,0,21.44,8.45,21.44,19.46,0,7.14-3.22,12.82-9.22,16Zm-22-21.93c6.15,0,8.4-3.35,8.4-8.16s-2.25-8.23-8.4-8.23h-5v16.4Z" transform="translate(-11.4 60)"/><path class="cls-8" d="M475.92,194.16v24.7H463.1V168.65c0-.44.22-.8,1-.15l32,25.65V169.31H509v50.28c0,.58-.22.8-1,.15Z" transform="translate(-11.4 60)"/><path class="cls-8" d="M545.19,218.86H531.85l24.82-50.42c.22-.51.67-.51.9,0l24.74,50.42H568.21l-1.95-4.23H547.06Zm11.32-25.65-5.1,11.51h10.35Z" transform="translate(-11.4 60)"/><path class="cls-8" d="M596.17,219.37a.47.47,0,0,1-.9,0l-24-50.06h14.54l10.42,23.1,10.12-23.1h13.87Z" transform="translate(-11.4 60)"/><path class="cls-8" d="M625.26,169.31H638.9v49.55H625.26Z" transform="translate(-11.4 60)"/><path class="cls-8" d="M657.27,218.86H643.93l24.82-50.42c.22-.51.67-.51.9,0l24.74,50.42H680.29l-1.95-4.23H659.14Zm11.32-25.65-5.1,11.51h10.35Z" transform="translate(-11.4 60)"/><path class="cls-8" d="M702.4,180.46H688.91V169.31h40.63v11.15H716v38.4H702.4Z" transform="translate(-11.4 60)"/><path class="cls-8" d="M736,169.31h13.64v49.55H736Z" transform="translate(-11.4 60)"/><path class="cls-8" d="M756.31,194.09c0-14.94,12.67-25.36,27.36-25.36S811,179.15,811,194.09s-12.67,25.43-27.36,25.43S756.31,209,756.31,194.09Zm40.78,0c0-7.8-4.87-13.84-13.42-13.84s-13.42,6-13.42,13.84S775.12,208,783.67,208,797.09,201.88,797.09,194.09Z" transform="translate(-11.4 60)"/><path class="cls-8" d="M830.23,194.16v24.7H817.41V168.65c0-.44.22-.8,1-.15l32,25.65V169.31h12.82v50.28c0,.58-.22.8-1,.15Z" transform="translate(-11.4 60)"/></svg>