<svg id="Layer_1" data-name="Layer 1" xmlns="http://www.w3.org/2000/svg" xmlns:xlink="http://www.w3.org/1999/xlink" viewBox="0 0 3681.6 538.14"><defs><style>.cls-1{fill:#f1f1f1;}.cls-2{fill:#e5e6e6;}.cls-3{fill:#48bfee;}.cls-4{fill:#0e70b1;}.cls-5{fill:#1a9dd8;}.cls-6,.cls-8{fill:#076fb0;}.cls-6{stroke:#fff;stroke-miterlimit:10;stroke-width:3px;}.cls-7{fill:#1c9cd8;}.cls-9{fill:url(#linear-gradient);}.cls-10{fill:url(#linear-gradient-2);}.cls-11{fill:url(#linear-gradient-3);}.cls-12{fill:#fff;}</style><linearGradient id="linear-gradient" x1="264.32" y1="330.14" x2="264.32" y2="207.12" gradientUnits="userSpaceOnUse"><stop offset="0" stop-color="#1c9cd8"/><stop offset="1" stop-color="#077ebb"/></linearGradient><linearGradient id="linear-gradient-2" x1="264.33" y1="236.34" x2="264.33" y2="86.65" gradientUnits="userSpaceOnUse"><stop offset="0" stop-color="#1c9cd8"/><stop offset="1" stop-color="#076fb0"/></linearGradient><linearGradient id="linear-gradient-3" x1="264.33" y1="236.34" x2="264.33" y2="38.05" xlink:href="#linear-gradient-2"/></defs><title>horn aviation</title><path class="cls-1" d="M401.15,199.18a109.94,109.94,0,0,1,.51,11.15,26.61,26.61,0,0,1-.09,2.75C343.72,248.89,283,289.73,220.87,336.35h0a134.59,134.59,0,0,1-81.43-83.73c79-27.91,164.78-55,256.88-79.76A125.74,125.74,0,0,1,401.15,199.18Z" transform="translate(-0.4 15)"/><path class="cls-2" d="M496.52,157.32q-30.82,12.39-63.23,26.88c-10.58,4.81-21.34,9.8-32.15,15a125.74,125.74,0,0,0-4.87-26.32c10.76-2.89,21.67-5.79,32.62-8.63q65.5-16.94,135-32.16Q531.48,143.41,496.52,157.32Z" transform="translate(-0.4 15)"/><path class="cls-2" d="M828.29,84.83q-90.35,12.6-185.75,31-39.94,7.77-78.62,16.24-32.43,11.34-67.39,25.25-30.33,16.87-62.1,35.84c.23,1.45.33,2.89.42,4.39q16.08-5.32,32.95-10.5c114.1-35.33,255.06-67.6,418.11-85.22C949,95,1008.81,92,1066,91c126.69-2.29,2523.66-12.19,2616,.41V56L1397,51.37A3555.34,3555.34,0,0,0,828.29,84.83Z" transform="translate(-0.4 15)"/><path class="cls-3" d="M433.3,184.2c.47,2.94.89,5.93,1.12,9-10.81,6.44-21.76,13.12-32.85,19.93a26.61,26.61,0,0,0,.09-2.75,109.94,109.94,0,0,0-.51-11.15C412,194,422.72,189,433.3,184.2Z" transform="translate(-0.4 15)"/><path class="cls-3" d="M433.3,184.2q32.36-14.56,63.23-26.88-30.33,16.87-62.1,35.84C434.19,190.13,433.77,187.14,433.3,184.2Z" transform="translate(-0.4 15)"/><path class="cls-2" d="M133.83,361.74q14-10.57,27.85-20.63a168.73,168.73,0,0,0,28.64,18.53q-14.6,11.27-28.69,22.59C101.63,430.12,48,477.63.4,523.14V475.9A1487,1487,0,0,1,121.8,371C125.82,367.86,129.85,364.78,133.83,361.74Z" transform="translate(-0.4 15)"/><path class="cls-4" d="M220.83,336.35c-1.26,1-2.57,1.91-3.84,2.89-9,6.81-17.92,13.58-26.68,20.4a168.73,168.73,0,0,1-28.64-18.53c9.64-7,19.28-13.77,28.92-20.4A133.47,133.47,0,0,0,220.83,336.35Z" transform="translate(-0.4 15)"/><path class="cls-4" d="M161.67,341.11q-13.9,10.08-27.85,20.63a201,201,0,0,1-57.89-86.11q15.65-5.88,31.73-11.67,15.65-5.74,31.73-11.34a134.34,134.34,0,0,0,51.2,68.1C181,327.34,171.31,334.11,161.67,341.11Z" transform="translate(-0.4 15)"/><path class="cls-4" d="M133.83,361.74c-4,3-8,6.11-12,9.24A1487,1487,0,0,0,.4,475.9V304.85Q37,290.22,75.93,275.63A201,201,0,0,0,133.83,361.74Z" transform="translate(-0.4 15)"/><path class="cls-4" d="M267.11,42.55A167.16,167.16,0,0,1,313.49,49q-72,11-141.85,23.15A167.39,167.39,0,0,1,267.11,42.55Z" transform="translate(-0.4 15)"/><path class="cls-4" d="M428.9,164.22c-11,2.85-21.86,5.74-32.62,8.63A134.42,134.42,0,0,0,267.11,76.15c-74.32,0-134.55,60.07-134.55,134.18a133,133,0,0,0,6.83,42.29q-16.08,5.6-31.73,11.34a167.59,167.59,0,0,1,64-191.78Q241.49,60.07,313.49,49A168.2,168.2,0,0,1,428.9,164.22Z" transform="translate(-0.4 15)"/><path class="cls-3" d="M563.92,132.07q-69.57,15.12-135,32.16A168.2,168.2,0,0,0,313.49,49c195.86-29.92,383-50.55,559.91-64H3417l16,72c-161.41-3.45-2389.9-2.22-2604.71,27.83q-90.35,12.6-185.75,31Q602.6,123.59,563.92,132.07Z" transform="translate(-0.4 15)"/><path class="cls-5" d="M.4-15h873c-177,13.49-364.06,34.12-559.91,64A168.73,168.73,0,0,0,171.64,72.18Q84.31,87.17.4,103.78Z" transform="translate(-0.4 15)"/><path class="cls-3" d="M75.93,275.63Q37,290.19.4,304.85V103.78q83.89-16.52,171.24-31.6a167.59,167.59,0,0,0-64,191.78Q91.59,269.77,75.93,275.63Z" transform="translate(-0.4 15)"/><polygon class="cls-6" points="516.45 255.58 514.43 255.58 514.43 288.99 532.51 288.99 532.51 287.22 516.45 287.22 516.45 255.58"/><path class="cls-6" d="M565.73,240.18c-9.43,0-17.1,6.93-17.1,17.1s7.66,17.1,17.1,17.1,17.1-6.93,17.1-17.1S575.17,240.18,565.73,240.18Zm0,32.38c-8.6,0-15-6.53-15-15.28s6.44-15.28,15-15.28,15,6.53,15,15.28S574.33,272.56,565.73,272.56Z" transform="translate(-0.4 15)"/><path class="cls-6" d="M618.65,261.11h13.56c-.79,6-5.4,11.45-14.15,11.45S603,266,603,257.28,609.41,242,618,242c5.26,0,9.48,2,12,5.94l1.52-1.13c-2.8-4.47-7.91-6.63-13.56-6.63a17.1,17.1,0,1,0,0,34.19c9.58,0,15.92-6,16.36-15.08H618.65Z" transform="translate(-0.4 15)"/><rect class="cls-6" x="653.73" y="255.58" width="2.01" height="33.41"/><path class="cls-6" d="M689.4,255.9l-3.1-1.42c-4.13-1.92-5.8-3.54-5.8-6.88s2.31-5.65,6.24-5.65a7.62,7.62,0,0,1,7,4.08l1.57-1a9.5,9.5,0,0,0-8.55-4.81c-4.52,0-8.2,2.85-8.2,7.47,0,4.23,2.31,6.44,7,8.6l3.1,1.42c4.67,2.16,6.83,4.27,6.83,8.16,0,4.23-3.59,6.78-8,6.78-5.36,0-7.86-2.8-9.43-5.75l-1.72.84c1.62,3.34,4.86,6.68,11.2,6.68,5.75,0,9.87-3.34,9.87-8.55C697.41,261.21,694.81,258.36,689.4,255.9Z" transform="translate(-0.4 15)"/><polygon class="cls-6" points="714.01 257.35 724.62 257.35 724.62 288.99 726.64 288.99 726.64 257.35 737.25 257.35 737.25 255.58 714.01 255.58 714.01 257.35"/><rect class="cls-6" x="757.25" y="255.58" width="2.01" height="33.41"/><path class="cls-6" d="M797.94,272.56c-8.6,0-15-6.53-15-15.28s6.44-15.28,15-15.28c5.31,0,9.29,2.16,11.74,5.65l1.52-1.13c-2.8-4.08-7.42-6.34-13.27-6.34-9.43,0-17.1,6.93-17.1,17.1s7.66,17.1,17.1,17.1c5.8,0,10.71-2.41,13.66-6.68l-1.52-1.08A14.36,14.36,0,0,1,797.94,272.56Z" transform="translate(-0.4 15)"/><path class="cls-6" d="M842.7,255.9l-3.1-1.42c-4.13-1.92-5.8-3.54-5.8-6.88S836.11,242,840,242a7.62,7.62,0,0,1,7,4.08l1.57-1a9.5,9.5,0,0,0-8.55-4.81c-4.52,0-8.21,2.85-8.21,7.47,0,4.23,2.31,6.44,7,8.6l3.1,1.42c4.67,2.16,6.83,4.27,6.83,8.16,0,4.23-3.59,6.78-8,6.78-5.36,0-7.86-2.8-9.43-5.75l-1.72.84c1.62,3.34,4.86,6.68,11.2,6.68,5.75,0,9.87-3.34,9.87-8.55C850.7,261.21,848.1,258.36,842.7,255.9Z" transform="translate(-0.4 15)"/><path class="cls-6" d="M509.76,164.49H380.23c-1.07-2.78-2.24-5.51-3.5-8.19H560.34a5.13,5.13,0,1,0,0-10.26H371.22A121.71,121.71,0,0,0,145,207.12c0,.43,0,.85,0,1.28a121.7,121.7,0,0,0,212,81.68h34.85a5.13,5.13,0,0,0,0-10.26H365.24q3.15-4.35,5.92-9h84.14a5.13,5.13,0,0,0,0-10.26H376.68c1.27-2.67,2.43-5.41,3.51-8.19H492.61a5.13,5.13,0,1,0,0-10.26H383.67l0-.09H300.06L254,190.8l26.81-16h228.9a5.13,5.13,0,1,0,0-10.26Z" transform="translate(-0.4 15)"/><polygon class="cls-6" points="337.07 245.86 337.07 196.31 323.43 196.31 323.43 218.97 305.73 218.97 305.73 196.31 292.09 196.31 292.09 245.86 305.73 245.86 305.73 230.12 323.43 230.12 323.43 245.86 337.07 245.86"/><path class="cls-6" d="M343.84,206.09c0,14.94,12.67,25.43,27.36,25.43s27.36-10.49,27.36-25.43-12.67-25.36-27.36-25.36S343.84,191.15,343.84,206.09Zm40.78,0c0,7.8-4.87,13.92-13.42,13.92s-13.42-6.12-13.42-13.92,4.87-13.84,13.42-13.84S384.63,198.29,384.63,206.09Z" transform="translate(-0.4 15)"/><path class="cls-6" d="M445.73,200.77c0-11-7.72-19.46-21.44-19.46H404.94v49.55h13.64V219.49h5.1l7.12,11.37h14.77l-9.07-14.06C442.5,213.59,445.73,207.91,445.73,200.77Zm-22.12,8.16h-5v-16.4h5c6.15,0,8.4,3.42,8.4,8.23S429.76,208.93,423.61,208.93Z" transform="translate(-0.4 15)"/><path class="cls-6" d="M485.16,206.16l-32-25.65c-.82-.66-1-.29-1,.15v50.21h12.82v-24.7l32,25.58c.82.66,1,.44,1-.15V181.31H485.16Z" transform="translate(-0.4 15)"/><path class="cls-6" d="M557.21,230.86H571.3l-24.74-50.42c-.22-.51-.67-.51-.9,0l-24.82,50.42h13.34l1.87-4.23h19.19Zm-16.79-14.14,5.1-11.51,5.25,11.51Z" transform="translate(-0.4 15)"/><path class="cls-6" d="M595.37,181.31l-10.12,23.1-10.42-23.1H560.28l24,50.06a.47.47,0,0,0,.9,0l24.07-50.06Z" transform="translate(-0.4 15)"/><rect class="cls-6" x="613.86" y="196.31" width="13.64" height="49.55"/><path class="cls-6" d="M658.64,180.44c-.22-.51-.67-.51-.9,0l-24.82,50.42h13.34l1.87-4.23h19.19l1.95,4.23h14.09Zm-6.15,36.29,5.1-11.51,5.25,11.51Z" transform="translate(-0.4 15)"/><polygon class="cls-6" points="718.14 196.31 677.51 196.31 677.51 207.46 691 207.46 691 245.86 704.65 245.86 704.65 207.46 718.14 207.46 718.14 196.31"/><rect class="cls-6" x="724.59" y="196.31" width="13.64" height="49.55"/><path class="cls-6" d="M800,206.09c0-14.94-12.67-25.36-27.36-25.36s-27.36,10.42-27.36,25.36,12.67,25.43,27.36,25.43S800,221,800,206.09ZM772.67,220c-8.55,0-13.42-6.12-13.42-13.92s4.87-13.84,13.42-13.84,13.42,6,13.42,13.84S781.22,220,772.67,220Z" transform="translate(-0.4 15)"/><path class="cls-6" d="M839.47,181.31v24.85l-32-25.65c-.82-.66-1-.29-1,.15v50.21h12.82v-24.7l32,25.58c.82.66,1,.44,1-.15V181.31Z" transform="translate(-0.4 15)"/><path class="cls-7" d="M514.83,240.58h2v31.64h16.07V274H514.83Z" transform="translate(-0.4 15)"/><path class="cls-7" d="M548.64,257.28c0-10.17,7.66-17.1,17.1-17.1s17.1,6.93,17.1,17.1-7.66,17.1-17.1,17.1S548.64,267.45,548.64,257.28Zm32.13,0c0-8.75-6.44-15.28-15-15.28s-15,6.53-15,15.28,6.44,15.28,15,15.28S580.77,266,580.77,257.28Z" transform="translate(-0.4 15)"/><path class="cls-7" d="M600.92,257.28a16.71,16.71,0,0,1,17.1-17.1c5.65,0,10.76,2.16,13.56,6.63L630,247.95c-2.55-4-6.78-5.94-12-5.94-8.6,0-15,6.53-15,15.28s6.49,15.28,15.08,15.28,13.36-5.4,14.15-11.45H618.65v-1.82h15.77c-.44,9-6.78,15.08-16.36,15.08A16.75,16.75,0,0,1,600.92,257.28Z" transform="translate(-0.4 15)"/><path class="cls-7" d="M654.13,240.58h2V274h-2Z" transform="translate(-0.4 15)"/><path class="cls-7" d="M676.33,267.7l1.72-.84c1.57,2.95,4.08,5.75,9.43,5.75,4.37,0,8-2.55,8-6.78,0-3.88-2.16-6-6.83-8.16l-3.1-1.42c-4.67-2.16-7-4.37-7-8.6,0-4.62,3.69-7.47,8.2-7.47A9.5,9.5,0,0,1,695.3,245l-1.57,1a7.62,7.62,0,0,0-7-4.08c-3.93,0-6.24,2.26-6.24,5.65s1.67,5,5.8,6.88l3.1,1.42c5.4,2.46,8,5.31,8,9.92,0,5.21-4.13,8.55-9.87,8.55C681.2,274.38,678,271,676.33,267.7Z" transform="translate(-0.4 15)"/><path class="cls-7" d="M725,242.35H714.41v-1.77h23.24v1.77H727V274h-2Z" transform="translate(-0.4 15)"/><path class="cls-7" d="M757.65,240.58h2V274h-2Z" transform="translate(-0.4 15)"/><path class="cls-7" d="M780.84,257.28c0-10.17,7.66-17.1,17.1-17.1,5.85,0,10.46,2.26,13.27,6.34l-1.52,1.13c-2.46-3.49-6.44-5.65-11.74-5.65-8.6,0-15,6.53-15,15.28s6.44,15.28,15,15.28a14.36,14.36,0,0,0,12.14-5.94l1.52,1.08c-2.95,4.27-7.86,6.68-13.66,6.68C788.5,274.38,780.84,267.45,780.84,257.28Z" transform="translate(-0.4 15)"/><path class="cls-7" d="M829.63,267.7l1.72-.84c1.57,2.95,4.08,5.75,9.43,5.75,4.37,0,8-2.55,8-6.78,0-3.88-2.16-6-6.83-8.16l-3.1-1.42c-4.67-2.16-7-4.37-7-8.6,0-4.62,3.69-7.47,8.2-7.47a9.5,9.5,0,0,1,8.55,4.81L847,246a7.62,7.62,0,0,0-7-4.08c-3.93,0-6.24,2.26-6.24,5.65s1.67,5,5.8,6.88l3.1,1.42c5.4,2.46,8,5.31,8,9.92,0,5.21-4.13,8.55-9.87,8.55C834.49,274.38,831.25,271,829.63,267.7Z" transform="translate(-0.4 15)"/><path class="cls-7" d="M383.7,174.75H509.76a5.13,5.13,0,0,0,5.13-5.13h0a5.13,5.13,0,0,0-5.13-5.13H367.33" transform="translate(-0.4 15)"/><path class="cls-8" d="M350.65,156.31H560.34a5.13,5.13,0,0,0,5.13-5.13h0a5.13,5.13,0,0,0-5.13-5.13H334.28" transform="translate(-0.4 15)"/><path class="cls-7" d="M281.35,270.84h174a5.13,5.13,0,0,0,5.13-5.13h0a5.13,5.13,0,0,0-5.13-5.13H265" transform="translate(-0.4 15)"/><path class="cls-8" d="M217.8,290.07h174a5.13,5.13,0,0,0,5.13-5.13h0a5.13,5.13,0,0,0-5.13-5.13H201.44" transform="translate(-0.4 15)"/><path class="cls-8" d="M269.05,252.4H492.61a5.13,5.13,0,0,0,5.13-5.13h0a5.13,5.13,0,0,0-5.13-5.13H252.68" transform="translate(-0.4 15)"/><path class="cls-9" d="M145,207.12c0,.43,0,.85,0,1.28A121.74,121.74,0,0,0,383.7,242H294.2l-4.55-5.75q-3,0-6.06,0C229.41,236.34,180.38,225.17,145,207.12Z" transform="translate(-0.4 15)"/><path class="cls-10" d="M383.7,174.75A121.74,121.74,0,0,0,145,207.12c35.41,18,84.45,29.22,138.63,29.22q3,0,6.06,0L241,174.75Z" transform="translate(-0.4 15)"/><path class="cls-11" d="M383.7,174.75A121.74,121.74,0,0,0,145,207.12c35.41,18,84.45,29.22,138.63,29.22q3,0,6.06,0L241,174.75Z" transform="translate(-0.4 15)"/><path class="cls-12" d="M329.08,276.23l25.13-16-5.31-1.62L319.85,264c-2-2.29-4.29-4.76-7-7.74L254,190.8l78.07-46.74a1.22,1.22,0,0,0-.29-2.21l-8.5-2.46a8.56,8.56,0,0,0-4.83,0l-56.57,16.84-15.61-15.61a.61.61,0,0,0-.87,0L239.1,147a.61.61,0,0,0,0,.87l11.69,11.69-19.56,5.82-15.18-16.91a40.46,40.46,0,0,0-15.49-10.59l-16-6.14a6.28,6.28,0,0,0-8.11,8.11l6.14,16a40.46,40.46,0,0,0,10.59,15.49L210,186.58l-5.16,17.34L194,193a.61.61,0,0,0-.87,0l-6.37,6.37a.61.61,0,0,0,0,.87l14.83,14.83-17.5,58.79a8.56,8.56,0,0,0,0,4.83l2.46,8.5a1.22,1.22,0,0,0,2.21.29l46.74-78.07,65.49,58.8c3,2.71,5.45,5,7.74,7l-5.4,29.06,1.62,5.31,16-25.13c2.38,1.49,5.07,3,8.29,4.7l9.69,5.08-5.08-9.69C332.09,281.3,330.57,278.61,329.08,276.23Z" transform="translate(-0.4 15)"/><path class="cls-8" d="M323.83,181.31h13.64v49.55H323.83V215.12H306.13v15.74H292.49V181.31h13.64V204h17.69Z" transform="translate(-0.4 15)"/><path class="cls-8" d="M343.84,206.09c0-14.94,12.67-25.36,27.36-25.36s27.36,10.42,27.36,25.36-12.67,25.43-27.36,25.43S343.84,221,343.84,206.09Zm40.78,0c0-7.8-4.87-13.84-13.42-13.84s-13.42,6-13.42,13.84S362.66,220,371.21,220,384.63,213.88,384.63,206.09Z" transform="translate(-0.4 15)"/><path class="cls-8" d="M445.58,230.86H430.81l-7.12-11.37h-5.1v11.37H404.94V181.31h19.34c13.72,0,21.44,8.45,21.44,19.46,0,7.14-3.22,12.82-9.22,16Zm-22-21.93c6.15,0,8.4-3.35,8.4-8.16s-2.25-8.23-8.4-8.23h-5v16.4Z" transform="translate(-0.4 15)"/><path class="cls-8" d="M464.92,206.16v24.7H452.1V180.65c0-.44.22-.8,1-.15l32,25.65V181.31H498v50.28c0,.58-.22.8-1,.15Z" transform="translate(-0.4 15)"/><path class="cls-8" d="M534.19,230.86H520.85l24.82-50.42c.22-.51.67-.51.9,0l24.74,50.42H557.21l-1.95-4.23H536.06Zm11.32-25.65-5.1,11.51h10.35Z" transform="translate(-0.4 15)"/><path class="cls-8" d="M585.17,231.37a.47.47,0,0,1-.9,0l-24-50.06h14.54l10.42,23.1,10.12-23.1h13.87Z" transform="translate(-0.4 15)"/><path class="cls-8" d="M614.26,181.31H627.9v49.55H614.26Z" transform="translate(-0.4 15)"/><path class="cls-8" d="M646.27,230.86H632.93l24.82-50.42c.22-.51.67-.51.9,0l24.74,50.42H669.29l-1.95-4.23H648.14Zm11.32-25.65-5.1,11.51h10.35Z" transform="translate(-0.4 15)"/><path class="cls-8" d="M691.4,192.46H677.91V181.31h40.63v11.15H705v38.4H691.4Z" transform="translate(-0.4 15)"/><path class="cls-8" d="M725,181.31h13.64v49.55H725Z" transform="translate(-0.4 15)"/><path class="cls-8" d="M745.31,206.09c0-14.94,12.67-25.36,27.36-25.36S800,191.15,800,206.09s-12.67,25.43-27.36,25.43S745.31,221,745.31,206.09Zm40.78,0c0-7.8-4.87-13.84-13.42-13.84s-13.42,6-13.42,13.84S764.12,220,772.67,220,786.09,213.88,786.09,206.09Z" transform="translate(-0.4 15)"/><path class="cls-8" d="M819.23,206.16v24.7H806.41V180.65c0-.44.22-.8,1-.15l32,25.65V181.31h12.82v50.28c0,.58-.22.8-1,.15Z" transform="translate(-0.4 15)"/></svg>